<svg width="24" height="24" viewBox="0 0 24 24" fill="none" xmlns="http://www.w3.org/2000/svg">
<path d="M23.5147 12.2731C23.5161 11.456 23.4466 10.6404 23.3068 9.8353H11.9973V14.4551H18.4775C18.3445 15.1933 18.0633 15.8969 17.6509 16.5235C17.2385 17.1501 16.7035 17.6866 16.078 18.1006V21.0984H19.9443C21.124 19.9592 22.0513 18.585 22.6664 17.0648C23.2814 15.5445 23.5704 13.9121 23.5147 12.2731Z" fill="#009EE2"/>
<path d="M11.9939 23.9955C14.9166 24.0773 17.7605 23.0412 19.9457 21.0985L16.0794 18.1008C15.1484 18.6967 14.0939 19.0727 12.9959 19.2002C11.898 19.3277 10.7854 19.2035 9.74261 18.8368C8.69984 18.4701 7.7543 17.8707 6.97777 17.0841C6.20124 16.2974 5.61413 15.3442 5.26098 14.2968H1.27628V17.3873C2.27499 19.3737 3.80603 21.0435 5.69853 22.2104C7.59104 23.3772 9.77056 23.9952 11.9939 23.9955Z" fill="#34A853"/>
<path d="M5.2609 14.2924C4.75851 12.8028 4.75851 11.1895 5.2609 9.69985V6.61414H1.27619C0.437011 8.28582 0 10.1304 0 12.0009C0 13.8714 0.437011 15.716 1.27619 17.3877L5.2609 14.2924Z" fill="#FBBC04"/>
<path d="M11.9939 4.7486C13.7044 4.72079 15.3574 5.36656 16.596 6.54659L20.0241 3.12176C17.8511 1.08295 14.9733 -0.0355079 11.9939 0.000859887C9.77005 0.00152463 7.59019 0.620263 5.69763 1.788C3.80508 2.95573 2.27433 4.6265 1.27628 6.61378L5.26098 9.70428C5.7248 8.27837 6.62364 7.03357 7.83124 6.14473C9.03885 5.25588 10.4945 4.76764 11.9939 4.7486Z" fill="#EA4335"/>
</svg>
