<svg width="36" height="36" viewBox="0 0 36 36" fill="none" xmlns="http://www.w3.org/2000/svg">
<g clip-path="url(#clip0_7204_28415)">
<path d="M14.9027 1.19271C16.819 0.0863382 19.1799 0.0863377 21.0962 1.19271L31.0066 6.91444C32.9229 8.02081 34.1033 10.0655 34.1033 12.2782V23.7217C34.1033 25.9344 32.9229 27.9791 31.0066 29.0855L21.0962 34.8072C19.1799 35.9136 16.819 35.9136 14.9027 34.8072L4.99235 29.0855C3.07606 27.9791 1.89558 25.9344 1.89558 23.7217V12.2782C1.89558 10.0655 3.07606 8.02081 4.99235 6.91444L14.9027 1.19271Z" fill="url(#paint0_linear_7204_28415)"/>
<mask id="mask0_7204_28415" style="mask-type:alpha" maskUnits="userSpaceOnUse" x="1" y="0" width="34" height="36">
<path d="M14.9027 1.19271C16.819 0.0863382 19.1799 0.0863377 21.0962 1.19271L31.0066 6.91444C32.9229 8.02081 34.1033 10.0655 34.1033 12.2782V23.7217C34.1033 25.9344 32.9229 27.9791 31.0066 29.0855L21.0962 34.8072C19.1799 35.9136 16.819 35.9136 14.9027 34.8072L4.99235 29.0855C3.07606 27.9791 1.89558 25.9344 1.89558 23.7217V12.2782C1.89558 10.0655 3.07606 8.02081 4.99235 6.91444L14.9027 1.19271Z" fill="#83E1E1"/>
</mask>
<g mask="url(#mask0_7204_28415)">
<path d="M7.06987 14.0314L-3.55766 20.6564L-12.7647 26.8436C-13.1071 27.0737 -13.3125 27.4592 -13.3125 27.8717V57.2177C-13.3125 57.9018 -12.7579 58.4564 -12.0738 58.4564H49.2036C49.8877 58.4564 50.4423 57.9018 50.4423 57.2177V31.0056C50.4423 30.5813 50.2251 30.1865 49.8667 29.9593L18.8472 10.3004C18.3574 9.98998 17.7178 10.0609 17.3079 10.4711L11.9644 15.8188C11.4805 16.303 10.6957 16.303 10.2119 15.8188L8.60139 14.2071C8.19394 13.7993 7.55906 13.7265 7.06987 14.0314Z" fill="url(#paint1_linear_7204_28415)"/>
<path d="M7.45467 16.875L1.125 21.975H5.97115C6.44588 21.975 8.21291 24.575 9.03709 25.875L10.125 19.775L7.45467 16.875Z" fill="url(#paint2_linear_7204_28415)"/>
<path d="M14.6468 19.125L18 13.5L31.5 21.375L28.408 22.7465L20.8125 22.5L13.5 29.25L16.875 21.375L14.6468 19.125Z" fill="url(#paint3_linear_7204_28415)"/>
</g>
</g>
<defs>
<linearGradient id="paint0_linear_7204_28415" x1="17.9995" y1="-0.595215" x2="17.9995" y2="36.5951" gradientUnits="userSpaceOnUse">
<stop stop-color="#22AFFF"/>
<stop offset="1" stop-color="#1D41FF"/>
</linearGradient>
<linearGradient id="paint1_linear_7204_28415" x1="18.5649" y1="9.76929" x2="18.5649" y2="58.4564" gradientUnits="userSpaceOnUse">
<stop stop-color="#1B3573"/>
<stop offset="1" stop-color="#131E39"/>
</linearGradient>
<linearGradient id="paint2_linear_7204_28415" x1="9.5625" y1="18" x2="-3.375" y2="37.125" gradientUnits="userSpaceOnUse">
<stop stop-color="#FCFCFD"/>
<stop offset="1" stop-color="white" stop-opacity="0"/>
</linearGradient>
<linearGradient id="paint3_linear_7204_28415" x1="18.5625" y1="13.5" x2="30.375" y2="56.25" gradientUnits="userSpaceOnUse">
<stop stop-color="white"/>
<stop offset="1" stop-color="#192E5F"/>
</linearGradient>
<clipPath id="clip0_7204_28415">
<rect width="36" height="36" fill="white"/>
</clipPath>
</defs>
</svg>
