<svg width="224" height="48" viewBox="0 0 224 48" fill="none" xmlns="http://www.w3.org/2000/svg">
<path fill-rule="evenodd" clip-rule="evenodd" d="M44.9427 17.4084C43.0116 19.2011 43.5659 18.9943 39.0817 17.6844C35.1487 16.4428 37.0122 16.0292 33.4959 18.0288C30.3217 19.8915 25.1487 21.7542 22.7333 23.2018C23.632 25.2028 31.3564 31.755 33.2192 34.4449C32.528 34.7893 31.9768 35.066 31.2188 35.4112C30.0457 35.9624 30.3217 35.9624 28.9426 35.1352C25.9075 33.4101 16.1811 27.8927 14.25 27.064C11.6993 28.1679 4.93801 31.6174 2.59485 31.479C1.49013 31.4106 -0.304166 31.1346 0.0441197 29.7547C0.938935 26.3752 7.00906 24.5117 10.9413 22.7874C12.5257 22.0986 12.1121 22.1678 12.4573 20.4419C12.8732 18.58 15.4939 5.06056 16.1143 4.37176C16.3903 4.16497 18.5282 3.26859 18.941 3.06102C19.1486 4.30335 19.2861 5.68249 19.3553 6.99245L20.0442 14.6485C20.0442 15.8901 20.2517 17.3384 20.4593 18.5108C22.252 17.6144 24.0456 16.8556 25.9083 15.9593C35.1495 11.5443 33.4967 14.5109 35.6323 9.54474C36.8762 6.78566 36.8762 5.12974 39.5653 5.54489C39.0817 11.0623 40.5969 14.5117 44.9427 17.4084ZM42.9424 10.5803C41.9092 10.9254 42.3228 12.5106 43.4944 12.2354L45.0819 11.6842C46.0459 11.4074 45.7715 9.75232 44.5299 10.0967L42.9424 10.5803ZM222.621 47.7575C223.517 48.4471 224.553 47.0671 223.655 46.446L222.966 45.8264C222.001 45.0668 221.035 46.5152 221.863 47.1371L222.621 47.7575ZM217.862 43.9629C218.76 44.6532 219.793 43.2733 218.968 42.5845L217.587 41.5497C216.691 40.8594 215.655 42.1694 216.553 42.8597L217.862 43.9629ZM212.482 39.7562C213.309 40.4458 214.413 39.1358 213.516 38.4455L212.137 37.4107C211.241 36.7219 210.136 38.0327 211.102 38.7907L212.482 39.7562ZM206.963 35.824C207.928 36.446 208.828 34.9976 207.928 34.3765L206.551 33.4101C205.514 32.7905 204.619 34.2388 205.584 34.86L206.963 35.824ZM201.308 31.9618C202.273 32.5829 203.17 31.1354 202.273 30.5134L200.827 29.6171C199.86 28.9967 198.964 30.445 199.86 31.0646L201.308 31.9618ZM195.582 28.3063C196.48 28.9267 197.445 27.5476 196.48 26.858L194.962 25.9616C194.134 25.4096 193.101 26.7888 194.134 27.4791L195.582 28.3063ZM189.72 24.8577C190.756 25.4089 191.444 23.8913 190.549 23.4093L189.03 22.5122C187.997 22.0302 187.236 23.5469 188.203 24.0297L189.72 24.8577ZM183.721 21.615C184.754 22.0986 185.514 20.6487 184.479 20.0975L182.963 19.3387C181.926 18.7875 181.238 20.3735 182.202 20.8578L183.721 21.615ZM177.579 18.5807C178.615 19.0635 179.374 17.546 178.34 17.064L176.821 16.3044C175.856 15.8217 175.029 17.3392 176.062 17.8212L177.579 18.5807ZM171.443 15.7533C172.548 16.1668 173.099 14.5801 172.063 14.1657L170.547 13.4762C169.442 13.0634 168.821 14.7185 169.857 15.0629L171.443 15.7533ZM165.098 13.201C166.131 13.6146 166.82 12.0286 165.718 11.545L164.13 10.9939C163.098 10.5803 162.477 12.1662 163.511 12.5798L165.098 13.201ZM158.751 10.8555C159.925 11.2007 160.269 9.47632 159.302 9.20112L157.647 8.64837C156.474 8.30397 156.13 9.95833 157.096 10.3035L158.751 10.8555ZM152.268 8.71678C153.372 9.06118 153.784 7.40682 152.75 7.13084L151.094 6.64806C149.991 6.3021 149.509 7.95801 150.613 8.234L152.268 8.71678ZM145.715 6.92482C146.682 7.20003 147.301 5.61409 146.128 5.26813L144.475 4.85532C143.231 4.58011 143.025 6.30366 144.06 6.51123L145.715 6.92482ZM139.095 5.40806C140.197 5.61408 140.472 3.88897 139.439 3.68218L137.713 3.33779C136.61 3.13099 136.333 4.78612 137.438 4.99214L139.095 5.40806ZM132.403 4.09732C133.436 4.30412 133.853 2.64743 132.678 2.44142C132.127 2.30303 131.576 2.23462 130.953 2.09624C129.988 1.95864 129.507 3.61377 130.678 3.82057C131.301 3.88898 131.852 4.02813 132.403 4.09732ZM125.642 3.06179C126.818 3.1994 126.955 1.54427 125.85 1.40744L124.196 1.19909C123.023 1.06148 122.883 2.78658 123.989 2.85578L125.642 3.06179ZM118.884 2.37144C119.987 2.50982 120.193 0.786274 119.023 0.647892L117.298 0.510287C116.264 0.441096 115.988 2.09624 117.228 2.23384L118.884 2.37144ZM112.125 1.95863C113.299 1.95863 113.229 0.234304 112.194 0.234304L110.468 0.164339C109.297 0.164339 109.297 1.82025 110.399 1.89022L112.125 1.95863ZM105.295 1.75183C106.4 1.75183 106.47 0.0959242 105.295 0.0267334C104.744 0.0267334 104.123 0.0267334 103.572 0.0267334C102.536 0.0267334 102.399 1.75183 103.572 1.75183C104.193 1.75183 104.744 1.75183 105.295 1.75183ZM98.4684 1.88944C99.7099 1.82025 99.5023 0.0951428 98.3999 0.163556L96.7432 0.233521C95.5709 0.302712 95.71 2.02626 96.8124 1.95785L98.4684 1.88944ZM91.7079 2.23384C92.8134 2.16543 92.7442 0.441094 91.5703 0.578698L89.8436 0.716304C88.7412 0.785495 88.8796 2.44064 89.9828 2.37067L91.7079 2.23384ZM84.9497 2.9242C85.9829 2.78659 85.9153 1.06148 84.7421 1.19909C84.1894 1.26828 83.5698 1.33747 83.0186 1.40744C81.9823 1.47585 82.0515 3.20017 83.2262 3.06179C83.7766 2.99338 84.3278 2.9242 84.9497 2.9242ZM78.1901 3.75137C79.3616 3.54458 78.948 1.88944 77.9148 2.09624L76.1897 2.37144C75.0874 2.57823 75.431 4.23493 76.465 4.02814L78.1901 3.75137ZM71.4288 4.92373C72.5343 4.71693 72.2575 3.0618 71.1536 3.26937L69.4316 3.54457C68.3945 3.75137 68.6705 5.47648 69.7752 5.26813L71.4288 4.92373ZM64.809 6.30366C65.843 6.09687 65.5678 4.37253 64.3954 4.64852L62.7395 4.99292C61.5687 5.33888 62.1191 6.92482 63.1531 6.64961L64.809 6.30366ZM58.1861 7.88882C59.2916 7.5452 58.8065 5.95926 57.7726 6.23447L56.0482 6.64884C54.945 6.99324 55.427 8.57918 56.5325 8.30397L58.1861 7.88882ZM51.6348 9.68313C52.6687 9.40792 52.2552 7.75122 51.1504 8.02876L49.4961 8.51076C48.4606 8.78675 48.8073 10.5111 49.9781 10.1659L51.6348 9.68313Z" fill="#009EE2"/>
</svg>
