<svg width="415" height="60" viewBox="0 0 415 60" fill="none" xmlns="http://www.w3.org/2000/svg">
<path d="M120.336 4.644C120.776 5.7 120.791 6.712 120.38 7.68C119.999 8.61866 119.324 9.45467 118.356 10.188C117.388 10.9213 116.185 11.5373 114.748 12.036C113.34 12.5053 111.844 12.784 110.26 12.872C107.796 13.0187 104.877 12.9453 101.504 12.652C98.1307 12.3587 94.464 11.948 90.504 11.42C86.544 10.8627 82.3933 10.232 78.052 9.528C73.7107 8.79467 69.3547 8.09067 64.984 7.416C65.8347 8.53067 66.3187 9.66 66.436 10.804C66.5827 11.9187 66.5093 13.0627 66.216 14.236C65.7467 16.1133 65.0573 18.0933 64.148 20.176C63.2387 22.2293 62.2267 24.356 61.112 26.556C59.9973 28.7267 58.8387 30.9267 57.636 33.156C56.4627 35.356 55.3627 37.5267 54.336 39.668C53.3093 41.8093 52.4147 43.8773 51.652 45.872C50.8893 47.8667 50.376 49.744 50.112 51.504C49.8773 53.2347 49.9507 54.8187 50.332 56.256C50.7133 57.7227 51.5347 58.9547 52.796 59.952C51.3 59.864 49.9507 59.5707 48.748 59.072C47.5747 58.6027 46.5333 58.0307 45.624 57.356C44.744 56.6813 43.9813 55.948 43.336 55.156C42.6907 54.364 42.1627 53.616 41.752 52.912C40.9307 51.5333 40.5493 49.9493 40.608 48.16C40.696 46.3707 41.0773 44.464 41.752 42.44C42.456 40.416 43.38 38.304 44.524 36.104C45.6973 33.904 46.9587 31.6893 48.308 29.46C49.6867 27.2307 51.08 25.0453 52.488 22.904C53.9253 20.7333 55.2453 18.6653 56.448 16.7C57.6507 14.7347 58.6773 12.916 59.528 11.244C60.3787 9.54266 60.9213 8.06133 61.156 6.8C56.844 6.15466 52.6347 5.58266 48.528 5.084C44.1573 4.58533 40.036 4.67333 36.164 5.348C32.292 5.99333 28.728 7.02 25.472 8.428C22.2453 9.80667 19.3707 11.4787 16.848 13.444C14.3253 15.38 12.228 17.3893 10.556 19.472C8.884 21.5253 7.696 23.564 6.992 25.588C6.25867 27.5827 6.068 29.3427 6.42 30.868C6.74267 32.3347 7.59333 33.5813 8.972 34.608C10.3213 35.6053 11.964 36.4267 13.9 37.072C15.836 37.688 17.948 38.1427 20.236 38.436C22.524 38.7293 24.7387 38.9053 26.88 38.964C29.0507 39.0227 31.0307 38.9787 32.82 38.832C34.6387 38.6853 36.032 38.48 37 38.216C36.648 39.1253 36.0907 39.8293 35.328 40.328C34.5653 40.8267 33.744 41.1933 32.864 41.428C31.984 41.6333 31.1187 41.7507 30.268 41.78C29.4173 41.8093 28.728 41.8093 28.2 41.78C26.4987 41.7213 24.7093 41.5747 22.832 41.34C20.984 41.076 19.1507 40.7387 17.332 40.328C15.5133 39.9173 13.7533 39.404 12.052 38.788C10.3507 38.172 8.81067 37.468 7.432 36.676C6.05333 35.884 4.89467 35.004 3.956 34.036C2.988 33.0387 2.34267 31.9387 2.02 30.736C1.316 28.36 1.38933 25.9253 2.24 23.432C3.09067 20.9387 4.528 18.5333 6.552 16.216C8.54667 13.8693 11.04 11.6987 14.032 9.704C17.0533 7.70933 20.3827 6.02266 24.02 4.644C27.6867 3.236 31.5733 2.20933 35.68 1.564C39.7867 0.918663 43.952 0.80133 48.176 1.212C51.1093 1.50533 54.204 1.85733 57.46 2.268C60.7453 2.64933 64.104 3.06 67.536 3.5C70.9973 3.91066 74.488 4.336 78.008 4.776C81.528 5.18667 84.9747 5.55333 88.348 5.876C91.7507 6.16933 95.036 6.404 98.204 6.58C101.372 6.756 104.335 6.81467 107.092 6.756C109.849 6.69733 112.357 6.50666 114.616 6.184C116.875 5.832 118.781 5.31866 120.336 4.644ZM67.2875 24.4C68.7835 24.8987 69.9275 25.4267 70.7195 25.984C71.5115 26.5413 72.0395 27.1133 72.3035 27.7C72.5968 28.2573 72.6848 28.8293 72.5675 29.416C72.4501 30.0027 72.2301 30.5893 71.9075 31.176C71.5848 31.7333 71.2035 32.2907 70.7635 32.848C70.3528 33.376 69.9861 33.8893 69.6635 34.388C70.1035 34.564 70.5141 34.6813 70.8955 34.74C71.3061 34.7693 71.6728 34.784 71.9955 34.784C72.3768 34.784 72.7728 34.74 73.1835 34.652C73.5941 34.564 74.0048 34.4027 74.4155 34.168C74.8261 33.9333 75.2221 33.596 75.6035 33.156C75.9848 32.716 76.3515 32.1587 76.7035 31.484C77.3781 31.5427 78.0821 31.7333 78.8155 32.056C79.5488 32.3787 80.1795 32.76 80.7075 33.2C81.2648 33.64 81.6461 34.0947 81.8515 34.564C82.0568 35.0333 81.9835 35.444 81.6315 35.796C80.7221 36.676 79.7541 37.7027 78.7275 38.876C77.7008 40.0493 76.7328 41.2373 75.8235 42.44C74.9435 43.6427 74.1808 44.8013 73.5355 45.916C72.9195 47.0013 72.5528 47.9107 72.4355 48.644C72.4061 48.8493 72.3768 49.084 72.3475 49.348C72.3475 49.5827 72.4061 49.7733 72.5235 49.92C72.6701 50.0373 72.9341 50.0373 73.3155 49.92C73.7261 49.8027 74.3421 49.4653 75.1635 48.908C75.6915 48.5267 76.5275 47.7493 77.6715 46.576C78.8448 45.3733 80.1648 43.936 81.6315 42.264L85.9435 37.072C85.8848 37.248 85.8555 37.512 85.8555 37.864C85.8555 38.1867 85.7968 38.5973 85.6795 39.096C85.5621 39.5947 85.3421 40.1813 85.0195 40.856C84.7261 41.5013 84.2568 42.2493 83.6115 43.1C82.7021 44.0973 81.7488 45.1827 80.7515 46.356C79.7541 47.5 78.7275 48.5707 77.6715 49.568C76.6448 50.536 75.5888 51.3573 74.5035 52.032C73.4181 52.6773 72.3475 53 71.2915 53C69.5315 52.9707 68.2408 52.4573 67.4195 51.46C66.5981 50.4333 66.2608 49.1427 66.4075 47.588C66.5541 46.0333 67.1995 44.3027 68.3435 42.396C69.4875 40.46 71.1448 38.5827 73.3155 36.764C72.6408 36.7347 71.9075 36.72 71.1155 36.72C70.3528 36.72 69.4288 36.5147 68.3435 36.104L63.1515 42.88L61.0395 45.3C60.8928 44.8893 60.7315 44.4787 60.5555 44.068C60.3795 43.6573 60.4381 43.1587 60.7315 42.572L61.3915 41.824C62.7115 40.2107 63.7821 38.832 64.6035 37.688C65.4248 36.5147 65.9821 35.6347 66.2755 35.048C65.4835 34.52 64.9701 33.9627 64.7355 33.376C64.5301 32.7893 64.4861 32.2027 64.6035 31.616C64.7501 31 64.9848 30.384 65.3075 29.768C65.6595 29.152 65.9968 28.536 66.3195 27.92C66.6715 27.304 66.9501 26.7027 67.1555 26.116C67.3901 25.5293 67.4341 24.9573 67.2875 24.4ZM94.8215 44.2C94.7042 44.4933 94.4255 44.948 93.9855 45.564C93.5748 46.18 93.0615 46.84 92.4455 47.544C91.8295 48.248 91.1402 48.9667 90.3775 49.7C89.6442 50.4333 88.9108 51.0787 88.1775 51.636C87.4735 52.1933 86.7988 52.6333 86.1535 52.956C85.5082 53.2493 84.9655 53.3227 84.5255 53.176C83.9388 53 83.3962 52.8093 82.8975 52.604C82.3695 52.3693 81.9002 52.12 81.4895 51.856C81.0788 51.592 80.7562 51.3133 80.5215 51.02C80.2575 50.6973 80.1108 50.3307 80.0815 49.92C80.0228 48.6 80.3455 46.9867 81.0495 45.08C81.7242 43.1733 82.7655 41.164 84.1735 39.052C84.6428 38.348 85.2295 37.5413 85.9335 36.632C86.6375 35.7227 87.4588 34.8573 88.3975 34.036C89.3655 33.2147 90.4508 32.5253 91.6535 31.968C92.8855 31.4107 94.2495 31.132 95.7455 31.132C96.6548 31.132 97.5055 31.2347 98.2975 31.44C99.0895 31.6453 99.7788 31.924 100.366 32.276C100.952 32.5987 101.436 32.98 101.818 33.42C102.199 33.8307 102.448 34.2413 102.566 34.652C102.683 35.0333 102.683 35.3853 102.566 35.708C102.448 36.0307 102.155 36.192 101.686 36.192C101.158 36.192 100.806 36.0747 100.63 35.84C100.483 35.6053 100.336 35.3413 100.19 35.048C100.043 34.7547 99.8228 34.4907 99.5295 34.256C99.2655 33.992 98.7668 33.86 98.0335 33.86C97.3295 33.86 96.5962 34.124 95.8335 34.652C95.1002 35.18 94.3815 35.8253 93.6775 36.588C93.0028 37.3213 92.3868 38.084 91.8295 38.876C91.2722 39.668 90.8322 40.3133 90.5095 40.812C90.5095 40.8413 90.3335 41.1347 89.9815 41.692C89.6295 42.2493 89.2335 42.9093 88.7935 43.672C88.3535 44.4347 87.9135 45.212 87.4735 46.004C87.0335 46.7667 86.7108 47.3827 86.5055 47.852C86.3295 48.204 86.3588 48.4387 86.5935 48.556C86.8282 48.644 87.1802 48.5707 87.6495 48.336C88.0308 48.1307 88.5002 47.7933 89.0575 47.324C89.6148 46.8547 90.2015 46.312 90.8175 45.696C91.4335 45.0507 92.0495 44.376 92.6655 43.672C93.3108 42.968 93.9122 42.2933 94.4695 41.648C95.0268 40.9733 95.5255 40.3427 95.9655 39.756C96.4055 39.1693 96.7428 38.7 96.9775 38.348L98.2095 35.576C98.2388 35.5467 98.5028 35.664 99.0015 35.928C99.5295 36.1627 100.116 36.5 100.762 36.94C101.407 37.3507 102.023 37.8053 102.61 38.304C103.196 38.8027 103.578 39.272 103.754 39.712C103.9 40.1227 103.812 40.5627 103.49 41.032C103.167 41.5013 102.786 42.1613 102.346 43.012C102.346 43.012 102.228 43.232 101.994 43.672C101.788 44.0827 101.539 44.596 101.246 45.212C100.952 45.7987 100.659 46.4293 100.366 47.104C100.102 47.7493 99.9255 48.292 99.8375 48.732C99.7495 49.26 99.7935 49.568 99.9695 49.656C100.146 49.744 100.366 49.7293 100.63 49.612C100.894 49.4653 101.158 49.2747 101.422 49.04C101.686 48.8053 101.876 48.6293 101.994 48.512C102.815 47.7493 103.695 46.796 104.634 45.652C105.602 44.508 106.555 43.3787 107.494 42.264L111.762 37.072C111.703 37.248 111.674 37.512 111.674 37.864C111.674 38.1867 111.615 38.5973 111.498 39.096C111.38 39.5947 111.16 40.1813 110.838 40.856C110.544 41.5013 110.09 42.2493 109.474 43.1L109.122 43.408L107.978 44.992C107.303 45.8427 106.628 46.7227 105.954 47.632C105.279 48.512 104.56 49.3333 103.798 50.096C103.035 50.9173 102.228 51.6067 101.378 52.164C100.556 52.692 99.7495 52.9707 98.9575 53C98.4002 53 97.8428 52.8973 97.2855 52.692C96.7575 52.4573 96.2735 52.1347 95.8335 51.724C95.4228 51.3133 95.0855 50.8293 94.8215 50.272C94.5868 49.7147 94.4695 49.1133 94.4695 48.468C94.4695 48.116 94.4842 47.72 94.5135 47.28C94.5428 46.84 94.5722 46.4147 94.6015 46.004C94.6602 45.5933 94.7042 45.2267 94.7335 44.904C94.7922 44.5813 94.8215 44.3467 94.8215 44.2ZM112.242 52.912C111.45 52.8827 110.746 52.736 110.13 52.472C109.514 52.208 109.015 51.8707 108.634 51.46C108.252 51.02 107.988 50.5653 107.842 50.096C107.695 49.5973 107.68 49.1133 107.798 48.644C107.974 47.8227 108.194 46.9133 108.458 45.916C108.692 44.8893 108.956 43.8333 109.25 42.748C109.543 41.6627 109.851 40.6067 110.174 39.58C110.467 38.524 110.731 37.5707 110.966 36.72C111.23 35.84 111.45 35.1067 111.626 34.52C111.802 33.904 111.919 33.4933 111.978 33.288C112.154 32.7013 112.271 32.2613 112.33 31.968C112.418 31.6453 112.388 31.308 112.242 30.956C112.242 30.9267 112.491 31.0733 112.99 31.396C113.518 31.6893 114.104 32.0707 114.75 32.54C115.424 33.0093 116.055 33.5227 116.642 34.08C117.258 34.608 117.639 35.092 117.786 35.532C117.932 35.9427 118.02 36.4413 118.05 37.028C118.079 37.5853 117.874 38.2747 117.434 39.096C117.434 39.096 117.346 39.3013 117.17 39.712C117.023 40.0933 116.803 40.592 116.51 41.208C116.246 41.824 115.952 42.5133 115.63 43.276C115.307 44.0093 114.984 44.7427 114.662 45.476C114.368 46.18 114.09 46.8253 113.826 47.412C113.591 47.9987 113.415 48.4387 113.298 48.732C113.239 48.908 113.18 49.0987 113.122 49.304C113.063 49.48 113.034 49.6413 113.034 49.788C113.034 49.9347 113.063 50.052 113.122 50.14C113.21 50.228 113.342 50.272 113.518 50.272C114.574 50.184 115.703 49.788 116.906 49.084C118.138 48.3507 119.326 47.4267 120.47 46.312C119.355 45.1973 118.695 43.76 118.49 42C118.284 40.24 118.563 38.4067 119.326 36.5C119.56 35.884 119.912 35.224 120.382 34.52C120.88 33.816 121.467 33.1707 122.142 32.584C122.846 31.9973 123.623 31.528 124.474 31.176C125.354 30.7947 126.307 30.6187 127.334 30.648C127.979 30.6773 128.61 30.7947 129.226 31C129.842 31.2053 130.399 31.484 130.898 31.836C131.396 32.1587 131.822 32.5547 132.174 33.024C132.526 33.464 132.76 33.9333 132.878 34.432C133.054 35.4 133.039 36.412 132.834 37.468C132.628 38.4947 132.262 39.5213 131.734 40.548C131.206 41.5747 130.546 42.5867 129.754 43.584C128.962 44.5813 128.067 45.5347 127.07 46.444C127.539 46.444 128.067 46.3707 128.654 46.224C129.24 46.0773 129.974 45.696 130.854 45.08C131.734 44.4347 132.79 43.4667 134.022 42.176C135.283 40.856 136.808 39.0227 138.598 36.676C138.539 36.852 138.51 37.116 138.51 37.468C138.51 37.7907 138.436 38.2013 138.29 38.7C138.172 39.1987 137.952 39.7853 137.63 40.46C137.336 41.1053 136.867 41.8533 136.222 42.704L136.002 43.012C135.386 43.7453 134.726 44.4347 134.022 45.08C133.347 45.7253 132.614 46.2973 131.822 46.796C131.059 47.2653 130.238 47.6467 129.358 47.94C128.507 48.2333 127.583 48.3947 126.586 48.424C125.999 48.4533 125.412 48.424 124.826 48.336C122.89 49.744 120.836 50.8733 118.666 51.724C116.495 52.5747 114.354 52.9707 112.242 52.912ZM123.066 38.832C122.802 39.7413 122.64 40.636 122.582 41.516C122.523 42.3667 122.596 43.144 122.802 43.848C123.594 42.9387 124.312 42 124.958 41.032C125.603 40.064 126.146 39.1253 126.586 38.216C127.026 37.2773 127.348 36.412 127.554 35.62C127.788 34.7987 127.862 34.0947 127.774 33.508C127.656 32.54 127.392 32.056 126.982 32.056C126.6 32.056 126.16 32.364 125.662 32.98C125.192 33.596 124.708 34.432 124.21 35.488C123.74 36.544 123.359 37.6587 123.066 38.832ZM147.774 30.516C148.038 30.516 148.449 30.5893 149.006 30.736C149.564 30.8533 150.136 31.0293 150.722 31.264C151.309 31.4693 151.852 31.7187 152.35 32.012C152.849 32.3053 153.142 32.584 153.23 32.848C153.612 33.904 153.568 35.048 153.098 36.28C152.629 37.4827 151.822 38.6853 150.678 39.888C149.534 41.0613 148.112 42.176 146.41 43.232C144.709 44.288 142.832 45.168 140.778 45.872C140.632 46.488 140.529 47.0747 140.47 47.632C140.412 48.1893 140.426 48.6733 140.514 49.084C140.632 49.4947 140.837 49.832 141.13 50.096C141.453 50.3307 141.908 50.448 142.494 50.448C143.14 50.4187 143.8 50.2573 144.474 49.964C145.178 49.6707 145.868 49.304 146.542 48.864C146.806 48.688 147.07 48.4827 147.334 48.248C147.628 48.0133 148.009 47.6613 148.478 47.192C148.948 46.7227 149.549 46.1067 150.282 45.344C151.045 44.552 151.998 43.5253 153.142 42.264L157.41 37.072C157.352 37.248 157.322 37.512 157.322 37.864C157.322 38.1867 157.264 38.5973 157.146 39.096C157.029 39.5947 156.809 40.1813 156.486 40.856C156.193 41.5013 155.738 42.2493 155.122 43.1L154.77 43.408C153.538 44.9333 152.365 46.312 151.25 47.544C150.165 48.7467 149.08 49.7733 147.994 50.624C146.909 51.4747 145.809 52.12 144.694 52.56C143.609 53 142.465 53.2053 141.262 53.176C140.206 53.1467 139.282 52.956 138.49 52.604C137.728 52.252 137.082 51.768 136.554 51.152C136.026 50.536 135.63 49.832 135.366 49.04C135.073 48.2187 134.897 47.3387 134.838 46.4C134.78 45.608 134.868 44.6693 135.102 43.584C135.337 42.4987 135.704 41.384 136.202 40.24C136.672 39.0667 137.273 37.9227 138.006 36.808C138.769 35.664 139.634 34.6373 140.602 33.728C141.57 32.8187 142.641 32.0707 143.814 31.484C145.017 30.8973 146.308 30.5747 147.686 30.516H147.774ZM141.702 42.572C141.673 42.7187 141.6 42.9093 141.482 43.144C142.685 42.352 143.785 41.516 144.782 40.636C145.78 39.756 146.645 38.8907 147.378 38.04C148.112 37.1893 148.684 36.368 149.094 35.576C149.505 34.7547 149.71 34.0213 149.71 33.376C149.065 33.6987 148.332 34.2267 147.51 34.96C146.689 35.6933 145.882 36.5147 145.09 37.424C144.328 38.304 143.624 39.2133 142.978 40.152C142.362 41.0613 141.937 41.868 141.702 42.572ZM153.469 48.644C153.645 48.0573 153.953 47.1333 154.393 45.872C154.804 44.5813 155.303 43.1 155.889 41.428C156.447 39.756 157.077 37.952 157.781 36.016C158.485 34.08 159.175 32.144 159.849 30.208C160.553 28.2427 161.228 26.3507 161.873 24.532C162.548 22.684 163.149 21.0413 163.677 19.604C164.205 18.1373 164.631 16.9493 164.953 16.04C165.276 15.1013 165.452 14.5587 165.481 14.412C165.657 13.8547 165.789 13.4147 165.877 13.092C165.965 12.7693 165.936 12.432 165.789 12.08C165.789 12.0507 166.097 12.2267 166.713 12.608C167.359 12.96 168.077 13.4293 168.869 14.016C169.691 14.5733 170.453 15.16 171.157 15.776C171.891 16.392 172.345 16.92 172.521 17.36C172.668 17.7707 172.712 18.2547 172.653 18.812C172.595 19.3693 172.36 20.0587 171.949 20.88C169.661 25.7787 167.608 30.208 165.789 34.168C164.997 35.84 164.22 37.512 163.457 39.184C162.695 40.8267 162.005 42.3227 161.389 43.672C160.773 45.0213 160.26 46.1507 159.849 47.06C159.439 47.9693 159.189 48.5267 159.101 48.732C158.925 49.2307 158.94 49.568 159.145 49.744C159.351 49.8907 159.659 49.9493 160.069 49.92C160.48 49.8613 160.935 49.7293 161.433 49.524C161.961 49.2893 162.431 49.0253 162.841 48.732C163.34 48.4093 163.868 47.9987 164.425 47.5C165.012 47.0013 165.584 46.4587 166.141 45.872C166.728 45.256 167.285 44.64 167.813 44.024C168.371 43.408 168.899 42.8213 169.397 42.264L173.665 37.072C173.607 37.248 173.577 37.512 173.577 37.864C173.577 38.1867 173.519 38.5973 173.401 39.096C173.284 39.5947 173.064 40.1813 172.741 40.856C172.448 41.5013 171.979 42.2493 171.333 43.1L171.025 43.408L169.837 44.992C169.397 45.5493 168.767 46.2827 167.945 47.192C167.153 48.072 166.244 48.952 165.217 49.832C164.191 50.6827 163.061 51.4307 161.829 52.076C160.627 52.692 159.395 53 158.133 53C156.109 53 154.76 52.6187 154.085 51.856C153.411 51.064 153.205 49.9933 153.469 48.644ZM169.629 48.644C169.834 47.852 170.083 46.9427 170.377 45.916C170.67 44.8893 170.963 43.848 171.257 42.792C171.55 41.7067 171.843 40.6507 172.137 39.624C172.459 38.568 172.738 37.6 172.973 36.72C173.207 35.84 173.398 35.1067 173.545 34.52C173.721 33.904 173.838 33.4933 173.897 33.288C174.073 32.7013 174.19 32.2613 174.249 31.968C174.307 31.6453 174.293 31.308 174.205 30.956C174.205 30.9267 174.337 30.9853 174.601 31.132C174.865 31.2787 175.202 31.484 175.613 31.748C176.053 31.9827 176.522 32.276 177.021 32.628C177.549 32.9507 178.047 33.288 178.517 33.64C178.986 33.992 179.382 34.344 179.705 34.696C180.057 35.048 180.291 35.3707 180.409 35.664C180.555 36.0747 180.599 36.5733 180.541 37.16C180.482 37.7173 180.233 38.4067 179.793 39.228C179.793 39.228 179.69 39.4187 179.485 39.8C179.309 40.1813 179.074 40.68 178.781 41.296C178.487 41.912 178.15 42.5867 177.769 43.32C177.417 44.0533 177.065 44.7867 176.713 45.52C176.39 46.224 176.082 46.8693 175.789 47.456C175.525 48.0133 175.334 48.4387 175.217 48.732C175.041 49.2307 175.026 49.524 175.173 49.612C175.349 49.6707 175.569 49.6413 175.833 49.524C176.126 49.4067 176.419 49.2453 176.713 49.04C177.035 48.8053 177.255 48.6293 177.373 48.512C178.194 47.7493 179.074 46.796 180.013 45.652C180.981 44.508 181.934 43.3787 182.873 42.264L187.141 37.072C187.082 37.248 187.053 37.512 187.053 37.864C187.053 38.1867 186.994 38.5973 186.877 39.096C186.759 39.5947 186.539 40.1813 186.217 40.856C185.923 41.5013 185.469 42.2493 184.853 43.1L184.501 43.408L183.357 44.992C182.682 45.8427 182.007 46.7227 181.333 47.632C180.658 48.512 179.939 49.3333 179.177 50.096C178.414 50.9173 177.607 51.592 176.757 52.12C175.906 52.6187 175.099 52.912 174.337 53C173.838 53.0587 173.281 53 172.665 52.824C172.078 52.6187 171.535 52.3253 171.037 51.944C170.538 51.5333 170.142 51.0493 169.849 50.492C169.555 49.9347 169.482 49.3187 169.629 48.644ZM177.901 22.288C179.749 22.904 181.113 23.5347 181.993 24.18C182.873 24.796 183.43 25.412 183.665 26.028C183.899 26.644 183.885 27.26 183.621 27.876C183.386 28.492 183.078 29.0933 182.697 29.68C182.345 30.2667 181.993 30.8387 181.641 31.396C181.318 31.9533 181.171 32.4813 181.201 32.98C179.617 32.4227 178.458 31.8653 177.725 31.308C177.021 30.7213 176.566 30.1347 176.361 29.548C176.185 28.9613 176.199 28.3747 176.405 27.788C176.61 27.172 176.845 26.5707 177.109 25.984C177.402 25.368 177.651 24.752 177.857 24.136C178.062 23.52 178.077 22.904 177.901 22.288ZM202.129 45.52C201.366 46.4293 200.398 47.3827 199.225 48.38C198.081 49.348 196.82 50.228 195.441 51.02C194.062 51.7827 192.61 52.384 191.085 52.824C189.56 53.264 188.078 53.4107 186.641 53.264C184.969 53.088 183.561 52.6187 182.417 51.856C181.273 51.064 180.628 49.9493 180.481 48.512C181.185 48.8053 181.801 49.0253 182.329 49.172C182.857 49.3187 183.326 49.4213 183.737 49.48C184.148 49.5387 184.529 49.5533 184.881 49.524C185.204 49.4947 185.541 49.4507 185.893 49.392C186.978 49.216 187.785 48.7173 188.313 47.896C188.841 47.0747 189.193 46.092 189.369 44.948C189.574 43.804 189.662 42.5573 189.633 41.208C189.604 39.8587 189.589 38.5533 189.589 37.292L184.925 42.88L182.813 45.344C182.725 45.1387 182.637 44.948 182.549 44.772C182.461 44.5667 182.388 44.3613 182.329 44.156C182.27 43.9507 182.256 43.7307 182.285 43.496C182.285 43.232 182.358 42.924 182.505 42.572L183.165 41.824L190.381 32.672L191.261 31.836L191.305 31.792C191.598 31.44 191.921 31.088 192.273 30.736C192.625 30.384 193.021 30.0613 193.461 29.768C193.901 29.4747 194.414 29.2107 195.001 28.976C195.588 28.7413 196.262 28.58 197.025 28.492C197.436 28.4627 198.008 28.5947 198.741 28.888C199.504 29.1813 200.222 29.5333 200.897 29.944C201.572 30.3547 202.129 30.7653 202.569 31.176C203.009 31.5867 203.141 31.88 202.965 32.056C202.378 31.9387 201.762 31.968 201.117 32.144C200.472 32.32 199.856 32.584 199.269 32.936C198.712 33.2587 198.198 33.6253 197.729 34.036C197.289 34.4173 196.966 34.7547 196.761 35.048C196.086 36.016 195.69 37.1453 195.573 38.436C195.485 39.6973 195.456 40.9733 195.485 42.264C195.544 43.5253 195.558 44.7133 195.529 45.828C195.529 46.9427 195.28 47.8373 194.781 48.512C195.338 48.2187 195.896 47.8813 196.453 47.5C197.01 47.1187 197.524 46.7227 197.993 46.312C198.462 45.9013 198.888 45.52 199.269 45.168C199.65 44.7867 199.973 44.4787 200.237 44.244L202.217 42.264L206.573 37.072C206.514 37.248 206.47 37.512 206.441 37.864C206.441 38.1867 206.382 38.5973 206.265 39.096C206.148 39.5947 205.928 40.1813 205.605 40.856C205.312 41.5013 204.842 42.2493 204.197 43.1L202.129 45.52ZM244.865 23.344C244.073 22.8453 243.075 22.464 241.873 22.2C240.699 21.9067 239.394 21.7013 237.957 21.584C236.549 21.4667 235.053 21.4227 233.469 21.452C231.914 21.452 230.359 21.496 228.805 21.584C227.279 21.672 225.798 21.7747 224.361 21.892C222.923 22.0093 221.647 22.112 220.533 22.2C220.415 22.4347 220.151 22.9773 219.741 23.828C219.359 24.6493 218.875 25.676 218.289 26.908C217.731 28.1107 217.101 29.4747 216.397 31C215.693 32.496 214.959 34.0213 214.197 35.576C213.463 37.1013 212.745 38.612 212.041 40.108C211.337 41.604 210.706 42.9533 210.149 44.156C209.591 45.3587 209.122 46.3707 208.741 47.192C208.359 48.0133 208.125 48.5267 208.037 48.732C207.831 49.2307 207.831 49.568 208.037 49.744C208.271 49.8907 208.594 49.9493 209.005 49.92C209.415 49.8613 209.87 49.7293 210.369 49.524C210.897 49.2893 211.366 49.0253 211.777 48.732C212.275 48.4093 212.803 47.9987 213.361 47.5C213.918 47.0013 214.475 46.4587 215.033 45.872C215.619 45.256 216.191 44.64 216.749 44.024C217.306 43.408 217.819 42.8213 218.289 42.264L222.601 37.072C222.542 37.248 222.513 37.512 222.513 37.864C222.513 38.1867 222.454 38.5973 222.337 39.096C222.219 39.5947 221.999 40.1813 221.677 40.856C221.383 41.5013 220.929 42.2493 220.313 43.1L218.729 44.992C218.289 45.5493 217.673 46.2827 216.881 47.192C216.089 48.072 215.179 48.952 214.153 49.832C213.126 50.6827 212.011 51.4307 210.809 52.076C209.606 52.692 208.374 53 207.113 53C206.086 53 205.235 52.8973 204.561 52.692C203.886 52.4867 203.373 52.208 203.021 51.856C202.669 51.4747 202.449 51.02 202.361 50.492C202.243 49.9347 202.243 49.3187 202.361 48.644C202.537 48.0573 202.801 47.236 203.153 46.18C203.505 45.0947 203.93 43.8627 204.429 42.484C204.927 41.1053 205.47 39.6093 206.057 37.996C206.643 36.3533 207.23 34.696 207.817 33.024C208.433 31.3227 209.049 29.636 209.665 27.964C210.281 26.292 210.853 24.708 211.381 23.212C210.354 23.212 209.562 23.036 209.005 22.684C208.447 22.3027 208.037 21.4813 207.773 20.22C208.477 20.8067 209.21 21.0853 209.973 21.056C210.765 20.9973 211.542 20.8213 212.305 20.528C212.51 19.9707 212.73 19.3547 212.965 18.68C213.229 17.976 213.463 17.3307 213.669 16.744C213.874 16.128 214.05 15.6 214.197 15.16C214.343 14.72 214.431 14.4707 214.461 14.412C214.637 13.8547 214.754 13.4147 214.813 13.092C214.871 12.7693 214.842 12.432 214.725 12.08C214.725 12.0507 215.033 12.2267 215.649 12.608C216.294 12.96 217.013 13.4293 217.805 14.016C218.626 14.5733 219.389 15.16 220.093 15.776C220.826 16.392 221.281 16.92 221.457 17.36C221.486 17.448 221.501 17.6093 221.501 17.844C221.501 18.0493 221.486 18.284 221.457 18.548C221.427 18.7827 221.398 19.032 221.369 19.296C221.339 19.5307 221.31 19.7213 221.281 19.868C222.777 19.7213 224.375 19.5453 226.077 19.34C227.778 19.1347 229.465 18.9733 231.137 18.856C232.838 18.7387 234.481 18.6947 236.065 18.724C237.649 18.724 239.057 18.8853 240.289 19.208C241.55 19.5013 242.577 19.9853 243.369 20.66C244.19 21.3053 244.689 22.2 244.865 23.344ZM231.763 44.2C231.646 44.4933 231.367 44.948 230.927 45.564C230.516 46.18 230.003 46.84 229.387 47.544C228.771 48.248 228.082 48.9667 227.319 49.7C226.586 50.4333 225.852 51.0787 225.119 51.636C224.415 52.1933 223.74 52.6333 223.095 52.956C222.45 53.2493 221.907 53.3227 221.467 53.176C220.88 53 220.338 52.8093 219.839 52.604C219.311 52.3693 218.842 52.12 218.431 51.856C218.02 51.592 217.698 51.3133 217.463 51.02C217.199 50.6973 217.052 50.3307 217.023 49.92C216.964 48.6 217.287 46.9867 217.991 45.08C218.666 43.1733 219.707 41.164 221.115 39.052C221.584 38.348 222.171 37.5413 222.875 36.632C223.579 35.7227 224.4 34.8573 225.339 34.036C226.307 33.2147 227.392 32.5253 228.595 31.968C229.827 31.4107 231.191 31.132 232.687 31.132C233.596 31.132 234.447 31.2347 235.239 31.44C236.031 31.6453 236.72 31.924 237.307 32.276C237.894 32.5987 238.378 32.98 238.759 33.42C239.14 33.8307 239.39 34.2413 239.507 34.652C239.624 35.0333 239.624 35.3853 239.507 35.708C239.39 36.0307 239.096 36.192 238.627 36.192C238.099 36.192 237.747 36.0747 237.571 35.84C237.424 35.6053 237.278 35.3413 237.131 35.048C236.984 34.7547 236.764 34.4907 236.471 34.256C236.207 33.992 235.708 33.86 234.975 33.86C234.271 33.86 233.538 34.124 232.775 34.652C232.042 35.18 231.323 35.8253 230.619 36.588C229.944 37.3213 229.328 38.084 228.771 38.876C228.214 39.668 227.774 40.3133 227.451 40.812C227.451 40.8413 227.275 41.1347 226.923 41.692C226.571 42.2493 226.175 42.9093 225.735 43.672C225.295 44.4347 224.855 45.212 224.415 46.004C223.975 46.7667 223.652 47.3827 223.447 47.852C223.271 48.204 223.3 48.4387 223.535 48.556C223.77 48.644 224.122 48.5707 224.591 48.336C224.972 48.1307 225.442 47.7933 225.999 47.324C226.556 46.8547 227.143 46.312 227.759 45.696C228.375 45.0507 228.991 44.376 229.607 43.672C230.252 42.968 230.854 42.2933 231.411 41.648C231.968 40.9733 232.467 40.3427 232.907 39.756C233.347 39.1693 233.684 38.7 233.919 38.348L235.151 35.576C235.18 35.5467 235.444 35.664 235.943 35.928C236.471 36.1627 237.058 36.5 237.703 36.94C238.348 37.3507 238.964 37.8053 239.551 38.304C240.138 38.8027 240.519 39.272 240.695 39.712C240.842 40.1227 240.754 40.5627 240.431 41.032C240.108 41.5013 239.727 42.1613 239.287 43.012C239.287 43.012 239.17 43.232 238.935 43.672C238.73 44.0827 238.48 44.596 238.187 45.212C237.894 45.7987 237.6 46.4293 237.307 47.104C237.043 47.7493 236.867 48.292 236.779 48.732C236.691 49.26 236.735 49.568 236.911 49.656C237.087 49.744 237.307 49.7293 237.571 49.612C237.835 49.4653 238.099 49.2747 238.363 49.04C238.627 48.8053 238.818 48.6293 238.935 48.512C239.756 47.7493 240.636 46.796 241.575 45.652C242.543 44.508 243.496 43.3787 244.435 42.264L248.703 37.072C248.644 37.248 248.615 37.512 248.615 37.864C248.615 38.1867 248.556 38.5973 248.439 39.096C248.322 39.5947 248.102 40.1813 247.779 40.856C247.486 41.5013 247.031 42.2493 246.415 43.1L246.063 43.408L244.919 44.992C244.244 45.8427 243.57 46.7227 242.895 47.632C242.22 48.512 241.502 49.3333 240.739 50.096C239.976 50.9173 239.17 51.6067 238.319 52.164C237.498 52.692 236.691 52.9707 235.899 53C235.342 53 234.784 52.8973 234.227 52.692C233.699 52.4573 233.215 52.1347 232.775 51.724C232.364 51.3133 232.027 50.8293 231.763 50.272C231.528 49.7147 231.411 49.1133 231.411 48.468C231.411 48.116 231.426 47.72 231.455 47.28C231.484 46.84 231.514 46.4147 231.543 46.004C231.602 45.5933 231.646 45.2267 231.675 44.904C231.734 44.5813 231.763 44.3467 231.763 44.2ZM376.645 4.644C377.085 5.7 377.099 6.712 376.689 7.68C376.307 8.61866 375.633 9.45467 374.665 10.188C373.697 10.9213 372.494 11.5373 371.057 12.036C369.649 12.5053 368.153 12.784 366.569 12.872C364.105 13.0187 361.186 12.9453 357.813 12.652C354.439 12.3587 350.773 11.948 346.813 11.42C342.853 10.8627 338.702 10.232 334.361 9.528C330.019 8.79467 325.663 8.09067 321.293 7.416C322.143 8.53067 322.627 9.66 322.745 10.804C322.891 11.9187 322.818 13.0627 322.525 14.236C322.055 16.1133 321.366 18.0933 320.457 20.176C319.547 22.2293 318.535 24.356 317.421 26.556C316.306 28.7267 315.147 30.9267 313.945 33.156C312.771 35.356 311.671 37.5267 310.645 39.668C309.618 41.8093 308.723 43.8773 307.961 45.872C307.198 47.8667 306.685 49.744 306.421 51.504C306.186 53.2347 306.259 54.8187 306.641 56.256C307.022 57.7227 307.843 58.9547 309.105 59.952C307.609 59.864 306.259 59.5707 305.057 59.072C303.883 58.6027 302.842 58.0307 301.933 57.356C301.053 56.6813 300.29 55.948 299.645 55.156C298.999 54.364 298.471 53.616 298.061 52.912C297.239 51.5333 296.858 49.9493 296.917 48.16C297.005 46.3707 297.386 44.464 298.061 42.44C298.765 40.416 299.689 38.304 300.833 36.104C302.006 33.904 303.267 31.6893 304.617 29.46C305.995 27.2307 307.389 25.0453 308.797 22.904C310.234 20.7333 311.554 18.6653 312.757 16.7C313.959 14.7347 314.986 12.916 315.837 11.244C316.687 9.54266 317.23 8.06133 317.465 6.8C313.153 6.15466 308.943 5.58266 304.837 5.084C300.466 4.58533 296.345 4.67333 292.473 5.348C288.601 5.99333 285.037 7.02 281.781 8.428C278.554 9.80667 275.679 11.4787 273.157 13.444C270.634 15.38 268.537 17.3893 266.865 19.472C265.193 21.5253 264.005 23.564 263.301 25.588C262.567 27.5827 262.377 29.3427 262.729 30.868C263.051 32.3347 263.902 33.5813 265.281 34.608C266.63 35.6053 268.273 36.4267 270.209 37.072C272.145 37.688 274.257 38.1427 276.545 38.436C278.833 38.7293 281.047 38.9053 283.189 38.964C285.359 39.0227 287.339 38.9787 289.129 38.832C290.947 38.6853 292.341 38.48 293.309 38.216C292.957 39.1253 292.399 39.8293 291.637 40.328C290.874 40.8267 290.053 41.1933 289.173 41.428C288.293 41.6333 287.427 41.7507 286.577 41.78C285.726 41.8093 285.037 41.8093 284.509 41.78C282.807 41.7213 281.018 41.5747 279.141 41.34C277.293 41.076 275.459 40.7387 273.641 40.328C271.822 39.9173 270.062 39.404 268.361 38.788C266.659 38.172 265.119 37.468 263.741 36.676C262.362 35.884 261.203 35.004 260.265 34.036C259.297 33.0387 258.651 31.9387 258.329 30.736C257.625 28.36 257.698 25.9253 258.549 23.432C259.399 20.9387 260.837 18.5333 262.861 16.216C264.855 13.8693 267.349 11.6987 270.341 9.704C273.362 7.70933 276.691 6.02266 280.329 4.644C283.995 3.236 287.882 2.20933 291.989 1.564C296.095 0.918663 300.261 0.80133 304.485 1.212C307.418 1.50533 310.513 1.85733 313.769 2.268C317.054 2.64933 320.413 3.06 323.845 3.5C327.306 3.91066 330.797 4.336 334.317 4.776C337.837 5.18667 341.283 5.55333 344.657 5.876C348.059 6.16933 351.345 6.404 354.513 6.58C357.681 6.756 360.643 6.81467 363.401 6.756C366.158 6.69733 368.666 6.50666 370.925 6.184C373.183 5.832 375.09 5.31866 376.645 4.644ZM317.392 49.656C316.952 48.6587 316.761 47.6173 316.82 46.532C316.879 45.4173 317.128 44.332 317.568 43.276C317.979 42.1907 318.536 41.164 319.24 40.196C319.915 39.1987 320.677 38.304 321.528 37.512C321.792 36.632 322.203 35.796 322.76 35.004C323.317 34.1827 323.992 33.4787 324.784 32.892C325.576 32.276 326.471 31.792 327.468 31.44C328.495 31.088 329.58 30.9267 330.724 30.956C332.983 31.0147 334.699 31.5427 335.872 32.54C337.045 33.5373 337.735 34.7693 337.94 36.236C338.204 38.26 338.013 40.24 337.368 42.176C336.752 44.0827 335.828 45.8133 334.596 47.368C335.535 47.1627 336.591 46.7373 337.764 46.092C338.967 45.4467 340.257 44.4053 341.636 42.968L346.652 37.072C346.593 37.248 346.564 37.512 346.564 37.864C346.564 38.1867 346.491 38.5973 346.344 39.096C346.227 39.5947 346.007 40.1813 345.684 40.856C345.391 41.5013 344.921 42.2493 344.276 43.1L344.012 43.408C343.396 44.1413 342.677 44.904 341.856 45.696C341.064 46.488 340.199 47.2067 339.26 47.852C338.321 48.4973 337.309 49.04 336.224 49.48C335.168 49.8907 334.068 50.096 332.924 50.096C332.748 50.096 332.572 50.096 332.396 50.096C332.249 50.096 332.073 50.0813 331.868 50.052C330.636 51.0787 329.301 51.856 327.864 52.384C326.456 52.912 325.063 53.1467 323.684 53.088C322.335 53.0293 321.088 52.7653 319.944 52.296C318.8 51.7973 317.949 50.9173 317.392 49.656ZM326.192 41.736C326.485 42.5573 326.852 43.3493 327.292 44.112C327.732 44.8453 328.26 45.476 328.876 46.004C329.404 45.0947 329.903 44.1267 330.372 43.1C330.871 42.0733 331.296 41.076 331.648 40.108C332 39.1107 332.264 38.1867 332.44 37.336C332.645 36.4853 332.748 35.7813 332.748 35.224C332.777 34.3733 332.616 33.728 332.264 33.288C331.912 32.8187 331.516 32.584 331.076 32.584C329.815 32.584 328.788 32.8773 327.996 33.464C327.233 34.0507 326.647 34.8133 326.236 35.752C326.911 35.6933 327.541 35.7373 328.128 35.884C328.744 36.0307 329.243 36.2947 329.624 36.676C329.741 36.7933 329.844 36.9107 329.932 37.028C330.02 37.116 330.093 37.2333 330.152 37.38C330.005 37.468 329.859 37.556 329.712 37.644C329.565 37.732 329.419 37.8347 329.272 37.952C328.685 38.392 328.128 38.9493 327.6 39.624C327.101 40.2693 326.632 40.9733 326.192 41.736ZM326.94 48.732C325.884 48.1453 324.901 47.4267 323.992 46.576L323.86 47.28C323.772 47.632 323.699 47.9987 323.64 48.38C323.611 48.732 323.625 49.0547 323.684 49.348C323.743 49.6413 323.845 49.876 323.992 50.052C324.168 50.228 324.403 50.3013 324.696 50.272C325.4 50.2133 326.148 49.7 326.94 48.732ZM358.508 41.868C358.42 42.0733 358.303 42.2787 358.156 42.484C358.009 42.66 357.863 42.8653 357.716 43.1L357.364 43.408L356.22 44.992C355.545 45.8427 354.871 46.7227 354.196 47.632C353.521 48.512 352.803 49.3333 352.04 50.096C351.277 50.9173 350.471 51.592 349.62 52.12C348.769 52.6187 347.963 52.912 347.2 53C346.701 53.0587 346.144 53 345.528 52.824C344.941 52.6187 344.399 52.3253 343.9 51.944C343.401 51.5333 343.005 51.0493 342.712 50.492C342.419 49.9347 342.345 49.3187 342.492 48.644C342.697 47.852 342.947 46.9427 343.24 45.916C343.533 44.8893 343.827 43.848 344.12 42.792C344.413 41.7067 344.707 40.6507 345 39.624C345.323 38.568 345.601 37.6 345.836 36.72C346.071 35.84 346.261 35.1067 346.408 34.52C346.584 33.904 346.701 33.4933 346.76 33.288C346.936 32.7013 347.053 32.2613 347.112 31.968C347.171 31.6453 347.156 31.308 347.068 30.956C347.068 30.9267 347.2 30.9853 347.464 31.132C347.728 31.2787 348.065 31.484 348.476 31.748C348.916 31.9827 349.385 32.276 349.884 32.628C350.412 32.9507 350.911 33.288 351.38 33.64C351.849 33.992 352.245 34.344 352.568 34.696C352.92 35.048 353.155 35.3707 353.272 35.664C353.419 36.0747 353.463 36.5733 353.404 37.16C353.345 37.7173 353.096 38.4067 352.656 39.228C352.656 39.228 352.553 39.4187 352.348 39.8C352.172 40.1813 351.937 40.68 351.644 41.296C351.351 41.912 351.013 42.5867 350.632 43.32C350.28 44.0533 349.928 44.7867 349.576 45.52C349.253 46.224 348.945 46.8693 348.652 47.456C348.388 48.0133 348.197 48.4387 348.08 48.732C347.904 49.2307 347.889 49.524 348.036 49.612C348.212 49.6707 348.432 49.6413 348.696 49.524C348.989 49.4067 349.283 49.2453 349.576 49.04C349.899 48.8053 350.119 48.6293 350.236 48.512C351.057 47.7493 351.937 46.796 352.876 45.652C353.844 44.508 354.797 43.3787 355.736 42.264L359.872 37.292L360.928 33.288C361.104 32.7013 361.236 32.2613 361.324 31.968C361.412 31.6453 361.383 31.308 361.236 30.956C361.236 30.9267 361.368 30.9853 361.632 31.132C361.925 31.2787 362.277 31.484 362.688 31.748C363.099 31.9827 363.553 32.276 364.052 32.628C364.58 32.9507 365.079 33.288 365.548 33.64C366.017 33.992 366.413 34.344 366.736 34.696C367.088 35.048 367.323 35.3707 367.44 35.664C367.587 36.0747 367.631 36.5733 367.572 37.16C367.543 37.7173 367.323 38.4067 366.912 39.228C366.912 39.228 366.809 39.4187 366.604 39.8C366.428 40.1813 366.179 40.68 365.856 41.296C365.563 41.912 365.225 42.5867 364.844 43.32C364.463 44.0533 364.096 44.7867 363.744 45.52C363.421 46.224 363.113 46.8693 362.82 47.456C362.556 48.0133 362.365 48.4387 362.248 48.732C362.072 49.2307 362.057 49.524 362.204 49.612C362.38 49.6707 362.6 49.6413 362.864 49.524C363.157 49.4067 363.451 49.2453 363.744 49.04C364.067 48.8053 364.287 48.6293 364.404 48.512C365.255 47.7493 366.149 46.796 367.088 45.652C368.027 44.508 368.965 43.3787 369.904 42.264L374.26 37.072C374.201 37.248 374.172 37.512 374.172 37.864C374.172 38.1867 374.099 38.5973 373.952 39.096C373.835 39.5947 373.615 40.1813 373.292 40.856C372.999 41.5013 372.529 42.2493 371.884 43.1L370.388 44.992C369.743 45.8427 369.068 46.7227 368.364 47.632C367.689 48.512 366.971 49.3333 366.208 50.096C365.445 50.9173 364.639 51.592 363.788 52.12C362.967 52.6187 362.16 52.912 361.368 53C360.899 53.0587 360.356 53 359.74 52.824C359.153 52.6187 358.596 52.3253 358.068 51.944C357.569 51.5333 357.159 51.0493 356.836 50.492C356.543 49.9347 356.469 49.3187 356.616 48.644L358.508 41.868ZM376.405 24.4C377.901 24.8987 379.045 25.4267 379.837 25.984C380.629 26.5413 381.157 27.1133 381.421 27.7C381.714 28.2573 381.802 28.8293 381.685 29.416C381.567 30.0027 381.347 30.5893 381.025 31.176C380.702 31.7333 380.321 32.2907 379.881 32.848C379.47 33.376 379.103 33.8893 378.781 34.388C379.221 34.564 379.631 34.6813 380.013 34.74C380.423 34.7693 380.79 34.784 381.113 34.784C381.494 34.784 381.89 34.74 382.301 34.652C382.711 34.564 383.122 34.4027 383.533 34.168C383.943 33.9333 384.339 33.596 384.721 33.156C385.102 32.716 385.469 32.1587 385.821 31.484C386.495 31.5427 387.199 31.7333 387.933 32.056C388.666 32.3787 389.297 32.76 389.825 33.2C390.382 33.64 390.763 34.0947 390.969 34.564C391.174 35.0333 391.101 35.444 390.749 35.796C389.839 36.676 388.871 37.7027 387.845 38.876C386.818 40.0493 385.85 41.2373 384.941 42.44C384.061 43.6427 383.298 44.8013 382.653 45.916C382.037 47.0013 381.67 47.9107 381.553 48.644C381.523 48.8493 381.494 49.084 381.465 49.348C381.465 49.5827 381.523 49.7733 381.641 49.92C381.787 50.0373 382.051 50.0373 382.433 49.92C382.843 49.8027 383.459 49.4653 384.281 48.908C384.809 48.5267 385.645 47.7493 386.789 46.576C387.962 45.3733 389.282 43.936 390.749 42.264L395.061 37.072C395.002 37.248 394.973 37.512 394.973 37.864C394.973 38.1867 394.914 38.5973 394.797 39.096C394.679 39.5947 394.459 40.1813 394.137 40.856C393.843 41.5013 393.374 42.2493 392.729 43.1C391.819 44.0973 390.866 45.1827 389.869 46.356C388.871 47.5 387.845 48.5707 386.789 49.568C385.762 50.536 384.706 51.3573 383.621 52.032C382.535 52.6773 381.465 53 380.409 53C378.649 52.9707 377.358 52.4573 376.537 51.46C375.715 50.4333 375.378 49.1427 375.525 47.588C375.671 46.0333 376.317 44.3027 377.461 42.396C378.605 40.46 380.262 38.5827 382.433 36.764C381.758 36.7347 381.025 36.72 380.233 36.72C379.47 36.72 378.546 36.5147 377.461 36.104L372.269 42.88L370.157 45.3C370.01 44.8893 369.849 44.4787 369.673 44.068C369.497 43.6573 369.555 43.1587 369.849 42.572L370.509 41.824C371.829 40.2107 372.899 38.832 373.721 37.688C374.542 36.5147 375.099 35.6347 375.393 35.048C374.601 34.52 374.087 33.9627 373.853 33.376C373.647 32.7893 373.603 32.2027 373.721 31.616C373.867 31 374.102 30.384 374.425 29.768C374.777 29.152 375.114 28.536 375.437 27.92C375.789 27.304 376.067 26.7027 376.273 26.116C376.507 25.5293 376.551 24.9573 376.405 24.4ZM410.055 45.52C409.292 46.4293 408.324 47.3827 407.151 48.38C406.007 49.348 404.745 50.228 403.367 51.02C401.988 51.7827 400.536 52.384 399.011 52.824C397.485 53.264 396.004 53.4107 394.567 53.264C392.895 53.088 391.487 52.6187 390.343 51.856C389.199 51.064 388.553 49.9493 388.407 48.512C389.111 48.8053 389.727 49.0253 390.255 49.172C390.783 49.3187 391.252 49.4213 391.663 49.48C392.073 49.5387 392.455 49.5533 392.807 49.524C393.129 49.4947 393.467 49.4507 393.819 49.392C394.904 49.216 395.711 48.7173 396.239 47.896C396.767 47.0747 397.119 46.092 397.295 44.948C397.5 43.804 397.588 42.5573 397.559 41.208C397.529 39.8587 397.515 38.5533 397.515 37.292L392.851 42.88L390.739 45.344C390.651 45.1387 390.563 44.948 390.475 44.772C390.387 44.5667 390.313 44.3613 390.255 44.156C390.196 43.9507 390.181 43.7307 390.211 43.496C390.211 43.232 390.284 42.924 390.431 42.572L391.091 41.824L398.307 32.672L399.187 31.836L399.231 31.792C399.524 31.44 399.847 31.088 400.199 30.736C400.551 30.384 400.947 30.0613 401.387 29.768C401.827 29.4747 402.34 29.2107 402.927 28.976C403.513 28.7413 404.188 28.58 404.951 28.492C405.361 28.4627 405.933 28.5947 406.667 28.888C407.429 29.1813 408.148 29.5333 408.823 29.944C409.497 30.3547 410.055 30.7653 410.495 31.176C410.935 31.5867 411.067 31.88 410.891 32.056C410.304 31.9387 409.688 31.968 409.043 32.144C408.397 32.32 407.781 32.584 407.195 32.936C406.637 33.2587 406.124 33.6253 405.655 34.036C405.215 34.4173 404.892 34.7547 404.687 35.048C404.012 36.016 403.616 37.1453 403.499 38.436C403.411 39.6973 403.381 40.9733 403.411 42.264C403.469 43.5253 403.484 44.7133 403.455 45.828C403.455 46.9427 403.205 47.8373 402.707 48.512C403.264 48.2187 403.821 47.8813 404.379 47.5C404.936 47.1187 405.449 46.7227 405.919 46.312C406.388 45.9013 406.813 45.52 407.195 45.168C407.576 44.7867 407.899 44.4787 408.163 44.244L410.143 42.264L414.499 37.072C414.44 37.248 414.396 37.512 414.367 37.864C414.367 38.1867 414.308 38.5973 414.191 39.096C414.073 39.5947 413.853 40.1813 413.531 40.856C413.237 41.5013 412.768 42.2493 412.123 43.1L410.055 45.52Z" fill="white"/>
</svg>
